# xmcd CD database file
#
# Track frame offsets:
#	150
#	7575
#	15622
#	23592
#	33025
#	39745
#	47957
#	55057
#	62587
#	69542
#	78022
#	85125
#	91850
#	99637
#	107380
#	114915
#	122262
#	129322
#	136755
#	144382
#	152692
#	159750
#	167902
#	176402
#	185080
#	192712
#	200242
#	207472
#	214665
#	222227
#	229057
#	247740
#	271675
#
# Disc length: 3900 seconds
#
# Revision: 8
# Processed by: cddbd v1.5.2PL0 Copyright (c) Steve Scherf et al.
# Submitted via: CD2WAV32(JP) R3.22
#
DISCID=a90f3a21
DTITLE=pop'n music - pop'n music 5 arcade originals
DYEAR=2001
DGENRE=Soundtrack
TTITLE0=龍舞～DRAGON DANCE
TTITLE1=クチビル
TTITLE2=西新宿清掃曲
TTITLE3=power plant
TTITLE4=君が好きだよ～守って守ってあげるから～Folky Version
TTITLE5=BICYCLE
TTITLE6=LA LA LA LA YO-DEL
TTITLE7=映画「SICILLIANA」のテーマ
TTITLE8=WITHOUT YOU AROUND
TTITLE9=In a Grow
TTITLE10=天麩羅兄弟
TTITLE11=Viva!2000
TTITLE12=Ti voglio bene ancora
TTITLE13=Shock of love
TTITLE14=une fille dans la pluie (F)
TTITLE15=ビーマニ戦隊ポップンファイブ
TTITLE16=昇りつめるの
TTITLE17=ウルトラハイヒール～I JUST WANNA TELL YOU
TTITLE18=Homesick Pt.2&3
TTITLE19=魔法の扉(スペース・マコのテーマ)
TTITLE20=ミュージカル"5丁目物語"よりオーヴァチュア
TTITLE21=どうなっちゃったって
TTITLE22=INOVATION
TTITLE23=Candy Blue～Vocal Best Version
TTITLE24=fly higher (than the stars) 2 STEP mix
TTITLE25=Love Is Strong To The Sky～V.B.-Remaster
TTITLE26=お江戸花吹雪 TEYAN-day MIX
TTITLE27=POP-STEP-UP
TTITLE28=une fille dans la pluie (J)
TTITLE29=君が好きだよ～守って守ってあげるから～
TTITLE30=どうなっちゃったって Long version
TTITLE31=西新宿清掃曲 Long version
TTITLE32=Homesick Pt.2&3 Long version
EXTD=
EXTT0=
EXTT1=
EXTT2=
EXTT3=
EXTT4=
EXTT5=
EXTT6=
EXTT7=
EXTT8=
EXTT9=
EXTT10=
EXTT11=
EXTT12=
EXTT13=
EXTT14=
EXTT15=
EXTT16=
EXTT17=
EXTT18=
EXTT19=
EXTT20=
EXTT21=
EXTT22=
EXTT23=
EXTT24=
EXTT25=
EXTT26=
EXTT27=
EXTT28=
EXTT29=
EXTT30=
EXTT31=
EXTT32=
PLAYORDER=
